<svg xmlns="http://www.w3.org/2000/svg" width="232" height="89" viewBox="0 0 400 154.315" aria-labelledby="logo-title" role="img"><title id="logo-title">KSI - All Over the Place</title><path d="M68.359.705c0 .861.672 1.718 5.348 6.815 2.011 2.192 3.495 3.986 3.298 3.986s-1.538-.505-2.98-1.121c-3.462-1.481-32.817-1.753-37.138-.344-5.452 1.777-12.911 5.253-15.691 7.314-1.185.878-2.34 1.596-2.567 1.596-1.171 0-8.407 6.844-11.449 10.829-8.045 10.539-9.507 23.951-3.905 35.821 1.757 3.722 8.642 11.556 10.155 11.556.454 0 1.001.457 1.215 1.016s.675 1.015 1.023 1.015 1.305.63 2.127 1.4 2.325 1.568 3.34 1.774c3.273.662 3.668 7.898.566 10.362-2.753 2.187-5.89 16.537-3.792 17.342 6.022 2.311 8.99-1.314 14.938-18.245l1.15-3.273 4.152.465c5.66.633 5.463.146 5.844 14.403l.339 12.658 3.915-.08c5.149-.105 4.853.649 5.098-12.953.161-8.967.453-12.251 1.184-13.294 1.23-1.755 1.237-3.404.02-4.414-.763-.633-.997-4.415-1.185-19.094-.259-20.313-.408-20.91-5.216-20.882-2.343.014-8.893 7.479-8.893 10.136 0 .285-.456.896-1.015 1.36s-1.015 1.414-1.015 2.113-.266 1.271-.592 1.271-.768.877-.982 1.949-.862 2.42-1.438 2.997-1.049 1.241-1.049 1.476c0 1.515-5.624 11.852-6.449 11.852-.548 0-.996-.268-.996-.595s-.837-.944-1.861-1.371c-2.438-1.018-8.837-7.126-11.059-10.556-3.874-5.981-3.986-6.308-4.423-12.996-.428-6.537-.402-6.698 1.842-11.369 2.393-4.978 11.298-14.671 14.357-15.625.815-.254 1.635-.657 1.821-.895 4.059-5.19 26.06-7.928 40.947-5.097 2.978.567 6.716 1.21 8.307 1.43 3.849.533 4.108 1.253 1.024 2.848-3.74 1.933-4.931 3.672-4.931 7.195v3.038h3.621c3.331 0 7.747-1.018 8.562-1.972.529-.621 7.439-3.862 11.024-5.171 9.31-3.399 7.195-9.767-5.617-16.919-1.299-.726-2.76-1.852-3.246-2.503s-1.192-1.185-1.567-1.185-3.443-1.523-6.817-3.384C71.87.166 68.359-.84 68.359.705m289.509 31.892c-1.024.374-1.861.894-1.861 1.156 0 .748-5.951 6.856-6.68 6.856-.855 0-11.491 10.548-13.456 13.345-3.753 5.342-.866 9.947 6.261 9.987 3.84.021 4.443 2.089 1.648 5.643-.72.915-1.31 1.948-1.31 2.295s-.783 1.658-1.741 2.914c-4.36 5.717-7.051 12.689-5.977 15.489.965 2.512 10.923 1.174 17.354-2.332.646-.352 1.721-.64 2.387-.64s1.813-.416 2.548-.924 2.096-1.159 3.027-1.446 3.367-1.292 5.414-2.234c7.341-3.379 9.459-3.669 12.352-1.688 1.396.956 2.54 1.925 2.543 2.154s1.206 1.633 2.674 3.122 2.684 2.933 2.703 3.208c.031.472 1.503 2.42 3.146 4.162.409.435 1.116 1.919 1.572 3.3s1.11 2.684 1.456 2.897c1.486.919.647 5.558-1.403 7.753-1.117 1.196-2.031 2.371-2.031 2.612 0 .713-3.875 4.156-4.677 4.156-.406 0-.737.283-.737.628s-1.904 1.774-4.231 3.174-4.382 2.717-4.568 2.926c-.61.686-3.611 1.831-10.829 4.129-3.909 1.245-7.411 2.477-7.784 2.737-2.271 1.591-30.979 3.114-37.563 1.993-2.792-.475-7.36-1.001-10.152-1.169-6.863-.414-7.049-.987-1.241-3.82 6.629-3.234 7.383-3.927 7.82-7.188.544-4.05-3.682-6.302-7.773-4.143-4.411 2.328-16.968 8.178-17.553 8.178-.394 0-1.078.438-1.522.972s-1.699 1.168-2.79 1.408-1.984.716-1.984 1.058-.638.623-1.418.623c-3.753 0-6.84 4.788-5.789 8.978.389 1.549 6.533 5.236 8.725 5.236.575 0 1.209.428 1.41.951s1.375 1.17 2.61 1.438c2.434.527 14.285 6.381 14.654 7.238.124.289.526.525.893.525s2.034.94 3.704 2.088c5.353 3.683 7.063.979 1.776-2.809-1.768-1.268-5.306-4.365-7.863-6.883l-4.649-4.579h5.353c3.055 0 7.083.501 9.386 1.167 5.061 1.464 28.12 1.625 36.521.256 37.992-6.194 59.113-25.242 49.71-44.833-2.316-4.826-3.297-6.532-4.532-7.879-.465-.507-.846-1.141-.846-1.408 0-1.456-13.008-13.413-16.094-14.793-2.564-1.147-7.146-.383-11.619 1.938-2.047 1.062-4.035 1.932-4.417 1.934-.874.004-8.358 3.034-8.946 3.622-3.223 3.223-2.429-1.826 1.207-7.686 4.704-7.579 4.041-12.183-1.754-12.183-1.632 0-3.147-.29-3.367-.646-.427-.691 6.404-7.834 10.709-11.198 8.742-6.832 8.443-16.997-.406-13.765m-36.917 6.014c-.854.343-2 1.694-2.547 3.003S317 43.993 316.5 43.993c-.615 0-1.177 1.707-1.727 5.246-.45 2.885-1.127 6.463-1.505 7.952s-.945 4.23-1.259 6.092-1.083 4.84-1.708 6.621c-2.418 6.885-.177 9.094 12.105 11.932 11.17 2.581 12.479-2.587 1.617-6.385-7.956-2.782-8.088-2.96-6.268-8.446.556-1.675 1.34-4.797 1.743-6.937.918-4.872 2.176-5.045 3.683-.508 1.273 3.832 4.047 4.932 4.695 1.861 1.498-7.092.187-22.553-1.961-23.13-1.866-.501-3.118-.421-4.964.32m-35.663 4.696c-1.384 1.529-1.292 4.607.672 22.615 1.254 11.493 1.362 11.195-4.065 11.247-3.901.036-5.334.898-6.01 3.613-.888 3.565 1.069 5.408 5.231 4.929l5.178-.586 1.692-.184.196 6.73c.199 6.873.746 8.498 2.858 8.498 1.052 0 1.255-1 1.685-8.291.478-8.129 1.316-10.66 3.531-10.66.298 0 .962-.672 1.475-1.494 1.11-1.778 3.557 2.376 4.361 7.406.935 5.844 4.579 12.362 6.911 12.362 3.078 0 4.395-2.611 2.833-5.62-.617-1.19-1.606-4.143-2.199-6.562-1.417-5.79-5.119-16.244-5.753-16.244-.275 0-.688-.942-.919-2.094s-1.301-3.969-2.379-6.261-2.185-4.928-2.46-5.858-1.223-3.06-2.105-4.733-1.605-3.913-1.605-4.98c0-4.382-6.254-7.009-9.128-3.833m-43.664-.035c-.558.385-1.665.705-2.46.711-1.511.011-3.631 2.585-3.631 4.41 0 3.921 5.955 5.781 11.913 3.72 1.992-.689 21.159-2.012 22.106-1.526.47.241-3.82 6.132-6.809 9.35-.671.723-1.424 1.848-1.673 2.5-.447 1.17-1.81 1.659-1.889.676-.726-9.037-1.288-10.321-4.518-10.321-4.817 0-6.5 3.501-4.961 10.318 1.419 6.284 1.074 12.447-.854 15.257-3.496 5.096-2.47 8.814 2.241 8.123 2.51-.368 2.293-1.104 4.024 13.679 1.422 12.146 1.748 13.537 3.166 13.537.782 0 .943-3.021.943-17.693 0-18.526.699-22.866 3.884-24.087.469-.181.853-.625.853-.987 0-.807 8.497-13.643 10.633-16.064l2.965-3.357c5.043-5.705 2.878-8.465-6.433-8.205-10.378.291-17.265.206-23.07-.285-3.391-.286-5.794-.195-6.43.244m-105.917 7.32l-1.711 8.968a104.52 104.52 0 0 1-1.337 6.091 86.94 86.94 0 0 0-1.342 6.541c-.893 5.591-1.763 6.537-2.673 2.906l-1.756-6.784c-.55-2.071-1.003-4.813-1.007-6.091-.02-6.103-.647-7.489-3.29-7.267-3.784.319-4.203 2.538-1.533 8.132 1.57 3.29 2.295 6.073 2.807 10.775l1.615 14.904c1.037 9.612 1.188 10.049 3.478 10.049 2.198 0 3.276-1.89 5.021-8.799 2.961-11.725 2.828-11.361 3.495-9.591.354.94 1.686 2.006 3.302 2.641 2.38.934 3.792 2.889 2.088 2.889-.342 0-1.242.99-1.999 2.2a30.67 30.67 0 0 1-3.008 3.93c-5.441 5.779-2.913 9.879 6.532 10.594 5.268.398 7.895-.363 7.895-2.287 0-1.46-3.382-4.283-5.132-4.284-2.447-.001-2.51-1.562-.175-4.357 6.645-7.955 6.887-11.848.739-11.877-2.901-.014-2.803-.495 1.184-5.829 3.138-4.198 4.356-7.718 2.672-7.718-1.721 0-10.677 7.486-13.106 10.955-2.132 3.042-1.714 1.449 5.775-22.065 2.461-7.726 1.313-10.548-4.288-10.548h-3.088l-1.158 5.922m18.719.889c-1.771.709-1.813 4.967-.126 12.817.724 3.369 1.154 12.543 1.334 28.426.051 4.588.33 6.096 1.375 7.445 3.16 4.082 5.381-1.813 4.287-11.377-.37-3.235-.592-5.986-.494-6.113.96-1.241 7.853 4.745 10.753 9.34 3.237 5.126 9.156 4.449 9.156-1.049 0-2.988-.074-3.092-3.129-4.444-1.721-.761-4.896-2.526-7.057-3.922l-3.928-2.539 4.35-4.311c6.071-6.018 6.084-7.903.09-13.739-2.342-2.281-5.007-5.061-5.922-6.178-3.819-4.662-6.847-5.896-10.689-4.356M68.33 53.638c-2.065 2.64-2.858 5.087-5.105 15.736l-2.286 10.829c-2.259 10.669-4.086 23.439-4.086 28.564 0 5.384 8.524 5.816 18.274.924.558-.28 1.441-1.829 1.962-3.442 1.526-4.723-2.87-7.405-8.3-5.066-1.172.505-1.229.284-.8-3.111.719-5.68 2.321-14.141 3.384-17.869 3.812-13.375 5.149-26.735 2.826-28.247-1.787-1.163-4.18-.477-5.869 1.682m142.851.496c-1.672 1.45-1.661.681-.245 16.079.366 3.985.298 4.257-1.213 4.827-2.475.935-2.622.504-2.464-7.228.152-7.406-.549-10.282-2.505-10.282-1.701 0-2.046 1.567-2.086 9.475-.047 9.2-.368 10.413-3.055 11.526-4.015 1.663-4.746 6.071-1.007 6.071 2.965 0 2.98.041 2.382 6.092-.576 5.831-.074 6.935 3.015 6.633l2.088-.203.198-6.057c.203-6.232.783-7.818 2.859-7.818 1.533 0 2.02 1.322 2.02 5.491 0 6.78 2.951 5.199 3.721-1.994.261-2.435.895-5.07 1.41-5.856.586-.894.917-3.188.885-6.134-.029-2.588.434-6.933 1.027-9.656 1.801-8.268 1.53-11.372-1.037-11.885-3.34-.668-4.34-.515-5.993.919m-23.947 1.03c-1.707 1.707-2.06 4.229-1.321 9.436.857 6.043.656 6.611-2.16 6.082-4.751-.891-7.99 5.529-4.081 8.09 1.856 1.216 5.468 1.462 6.115.416 1.019-1.649 1.606-.311 2.005 4.568.818 9.994.943 10.426 2.968 10.191l1.795-.208.504-9.063c.548-9.846.855-10.652 4.308-11.3 3.92-.735 4.169-5.694.285-5.694h-2.051v-5.67c0-6.358-.265-6.801-4.477-7.495-2.123-.35-3.046-.197-3.89.647m47.267 2.578c-5.53 2.169-16.565 11.416-16.565 13.883 0 .798 1.39 2.895 3.099 4.674 2.458 2.559 2.947 3.437 2.365 4.242a13.47 13.47 0 0 0-1.183 2.031c-.247.558-1.311 2.288-2.365 3.844-3.205 4.732-2.601 6.729 2.483 8.203 11.395 3.303 12.224 3.171 12.941-2.063.44-3.207-.593-4.157-5.115-4.707-1.86-.227-1.714-.437 2.872-4.158 4.427-3.592 4.165-8.169-.603-10.551-3.109-1.552-4.599-3.455-3.098-3.955.446-.149 1.24-.7 1.765-1.225s1.234-.955 1.574-.955 1.906-1.526 3.479-3.391c4.179-4.957 3.37-7.839-1.649-5.872M80 61.726c-.447.447-.812 1.299-.812 1.895s-.272 1.372-.604 1.726-1.22 3.079-1.973 6.057-2.461 8.438-3.796 12.133c-4.234 11.723-1.755 16.346 7.658 14.278 6.063-1.331 7.594-10.505 1.753-10.505-1.334 0-1.367-5.209-.053-8.268 4.629-10.773 5.324-14.564 3.057-16.675-1.728-1.61-3.985-1.886-5.23-.641m23.045 2.777c-1.21 1.19-2.2 2.421-2.2 2.736s-.614 1.436-1.366 2.492c-6.144 8.628-5.746 32.431.542 32.464.477.003 1.043.462 1.257 1.02.907 2.364 8.446 1.327 11.47-1.578 9.265-8.903 9.445-37.339.236-37.339-1.001 0-2.199-.457-2.663-1.015-1.446-1.744-4.842-1.174-7.276 1.22m61.075 2.018a57.9 57.9 0 0 0 1.956 1.407c1.196.826 1.089 1.065-1.801 4.038-3.923 4.038-3.869 4.063-3.869-1.802 0-5.419.34-6.288 1.959-5.014l1.755 1.371m107.587-1.038c-.392.279-1.074 3.096-1.516 6.26-1.192 8.524-2.253 14.38-2.882 15.905-.307.745-.699 2.42-.87 3.723s-.661 4.366-1.09 6.807c-1.011 5.766-.259 8.083 2.623 8.083 2.243 0 5.463-1.261 5.463-2.14 0-.312.304-.568.677-.568s1.224-.533 1.894-1.184 2.645-2.403 4.39-3.892c2.23-1.903 3.176-3.22 3.182-4.433.02-3.772-3.126-4.376-6.733-1.292-3.486 2.979-3.575 2.78-2.964-6.627 1.183-18.231.713-22.696-2.174-20.642m25.179 6.258c.307 1.533.097 1.986-1.096 2.364-2.049.651-2.414-.441-2.15-6.423l.104-2.369 1.382 2.266c.759 1.246 1.552 3.118 1.76 4.162m-188.072.191c2.732 11.75-1.397 28.166-6.201 24.653-2.607-1.906-1.367-22.064 1.485-24.138.276-.201 1.035-1.203 1.686-2.227 1.657-2.604 2.082-2.364 3.03 1.712M42.796 82.687c-.854.854-4.894-.134-4.894-1.196 0-1.077 3.37-8.391 4.378-9.502.487-.536.758.88.896 4.675.109 2.994-.062 5.704-.38 6.023" fill="hsl(345, 100%, 48%)" fill-rule="evenodd"/></svg>