<svg version="1.1" id="logos" xmlns="http://www.w3.org/2000/svg" xmlns:xlink="http://www.w3.org/1999/xlink" x="0px" y="0px" viewBox="0 0 125 40" enable-background="new 0 0 125 40" xml:space="preserve">
	<g>
		<g>
			<g>
				<path fill="#FF164A" d="M44.667,4.449v0.532l-1.713,0.517l0.381,0.408l-0.326,0.136c0,0,0.489,0.245,0.408,1.115     s-0.87,3.371-0.924,4.051c-0.054,0.68-0.217,1.821-0.598,2.882c0.082,0.245,0.897,0.843,0.897,0.843s-0.462,3.126-0.816,4.649     c-0.353,1.522-0.571,2.474-0.68,4.186c-0.326,0.598-0.571,1.06-0.353,1.251s0.408-0.517,0.462-0.897s2.256-4.404,2.854-5.654     c0.598-1.251,1.087-1.903,1.087-1.903s2.012,2.256,2.583,2.854l-1.685-0.136c0,0,0.897,0.924,3.697,2.637     c2.8,1.713,5.029,2.664,5.029,2.664s-1.414-2.827-2.691-4.649s-2.229-2.99-2.229-2.99s1.522,0.381,1.849,0.897     c-0.163-0.652-0.843-1.142-1.604-1.522c-0.761-0.381-3.072-2.066-3.072-2.066s8.563-3.235,9.732-3.752s1.522-0.68,1.522-0.68     l0.951,0.054l-1.522-1.441l-0.054-0.245c0,0-4.431-2.419-5.709-2.528l0.462,0.652l-0.435-0.19c0,0,0.082,0.408,0.435,0.788     C52.959,7.291,53.23,8.08,53.23,8.08l-0.326-0.054L52.578,8.27l0.082,0.408c0,0-1.305,1.169-2.61,1.821     c-1.305,0.652-3.752,2.039-4.186,2.555c0.979-3.262,1.685-4.322,2.093-5.056s0.462-1.033,0.462-1.033s1.06-1.359,0.951-1.359     s-0.788,0.082-0.788,0.082l-0.027-0.435C48.555,5.253,46.407,5.14,44.667,4.449z"/>
				<path fill="#FF164A" d="M70.384,5.035c0,0-1.849,0.217-3.643,0.707s-5.6,1.903-5.79,2.175c0.326,0.299,0.326,0.299,0.326,0.299     s-0.19,1.577-0.517,2.474s-0.652,1.658-0.652,1.658s0.381,0.707,1.658,0.951c1.278,0.245,2.691,0.408,3.779,0.571     s2.854,0.652,2.854,0.652s-1.794,1.441-4.785,3.724s-4.132,3.534-4.132,3.534l-0.027,0.353L58.26,23.63     c0,0,1.495-0.951,2.99-1.577c1.495-0.625,4.35-2.039,6.987-3.425c2.637-1.386,4.975-4.078,4.975-4.078l-0.054-0.299l2.175-1.767     c0,0-1.468-0.435-6.198-0.381c-4.458,0.027-5.247-0.027-5.328-0.054s-0.517-0.217-0.517-0.217l0.272-0.381     c0,0,0.19-0.979,0.299-1.033c0.109-0.054,0.544-0.326,0.544-0.326l0.353-0.299c0,0,0.326-0.245,1.984-0.652     s3.697-0.652,3.697-0.652l-0.843,0.68l0.544,0.082l-0.598,0.598h0.381c0,0,1.006-0.544,1.332-0.652     c0.326-0.109,2.148-0.734,2.61-1.06c0.462-0.326,0.843-0.761,0.761-0.734c-0.082,0.027-0.408-0.245-0.408-0.245V6.014     L73.483,4.79c0,0-0.054,1.169-0.136,1.196c-0.082,0.027-2.148-1.251-2.583-1.305c-0.435-0.054-0.707-0.054-0.707-0.054     L70.384,5.035z"/>
				<path fill="#FF164A" d="M82.346,4.464c0,0,0.68,0.571,0.462,0.598c-0.217,0.027-1.441,0.462-1.522,0.408     c-0.082-0.054-3.534,0.489-4.295,0.788l-0.027,0.517l0.707,0.19l-1.658,0.816c0,0,2.583,0.517,2.827,0.652     c-0.299,0.163-0.489,0.272-0.489,0.272s0.027,1.577-0.027,1.685s-0.163,0.734-0.462,1.685c-0.299,0.951-0.462,2.882-0.625,4.132     c-0.163,1.251-0.381,2.555-0.381,2.555l0.408,0.163l-1.033,5.682c0,0,1.223-1.658,2.528-4.431s1.821-4.948,1.93-5.274     c0.109-0.326,0.245-0.517,0.245-0.517l-0.326-0.054l-0.109,0.353l-0.19,0.217c0,0,0.245-1.142,1.522-3.262     c1.278-2.12,1.251-2.202,1.577-2.936c0.326-0.734,0.734-1.522,0.734-1.522l-0.163-0.217c0,0,0.136-0.571,0.136-0.897     C84.113,5.742,83.487,4.546,82.346,4.464z"/>
			</g>
			<g>
				<path fill="#FF164A" d="M4.065,25.515L0,35.334c0,0,2.428,0.026,2.534,0c0.036-0.009,0.399-0.909,0.859-2.085H7.63l0.817,2.085     h2.534l-3.959-9.819H4.065z M4.139,31.321c0.694-1.805,1.351-3.537,1.351-3.537l1.385,3.537H4.139z"/>
				<polygon fill="#FF164A" points="15.283,25.515 13.092,25.515 13.092,35.345 21.222,35.345 21.222,33.169 15.283,33.169    "/>
				<path fill="#FF164A" d="M32.413,30.028c0,0,0.502-0.765,0.502-1.98c0-1.399-0.607-2.534-2.27-2.534s-6.942,0-6.942,0v9.831     c0,0,5.517,0,7.285,0c1.768,0,2.428-1.252,2.428-2.73C33.416,30.846,32.413,30.028,32.413,30.028z M25.899,27.452h3.873     c0.498,0,0.902,0.404,0.902,0.902v0.176c0,0.498-0.404,0.902-0.902,0.902h-3.873V27.452z M31.126,32.448     c0,0.498-0.404,0.902-0.902,0.902h-4.325V31.37h4.325c0.498,0,0.902,0.404,0.902,0.902V32.448z"/>
				<path fill="#FF164A" d="M43.351,30.732c0,1.446-1.173,2.619-2.619,2.619h-0.22c-1.446,0-2.619-1.173-2.619-2.619v-5.217h-2.267     v5.965c0,2.249,1.823,4.071,4.071,4.071h1.717c2.249,0,4.071-1.823,4.071-4.071v-5.965h-2.135V30.732z"/>
				<polygon fill="#FF164A" points="54.091,32.052 51.01,25.515 48.083,25.515 48.083,35.397 50.305,35.397 50.305,29.411      53.188,35.397 54.927,35.397 57.876,29.543 57.876,35.397 60.033,35.397 60.033,25.515 57.172,25.515    "/>
				<path fill="#FF164A" d="M74.624,29.389c-2.553-0.176-2.861-0.462-2.861-1.034c0-0.572,0.528-0.902,2.509-0.902     c1.981,0,2.791,0.527,2.751,1.364h2.157c0,0-0.066-0.176,0-0.242c0-0.99-0.22-3.213-4.512-3.213     c-3.059,0-5.062,0.484-5.062,2.993c0,2.377,2.223,3.015,5.15,3.081c2.179,0.11,2.509,0.572,2.509,0.99s0.022,0.968-2.707,0.968     c-2.399,0-2.817-0.704-2.817-1.497h-2.289c0,1.937,0.638,3.653,4.974,3.653c3.367,0,5.04-0.814,5.04-3.257     S77.463,29.587,74.624,29.389z"/>
				<polygon fill="#FF164A" points="81.138,27.739 84.88,27.739 84.88,35.331 87.081,35.331 87.081,27.739 90.954,27.739      90.954,25.494 81.138,25.494    "/>
				<path fill="#FF164A" d="M97.688,25.362c-2.399,0-4.974,0.858-4.974,4.908c0,3.631,1.607,5.282,4.82,5.282     s5.062-1.431,5.062-5.095C102.596,27.893,101.826,25.362,97.688,25.362z M97.556,33.307c-1.254,0-2.619-0.506-2.619-2.85     s1.342-2.806,2.718-2.806c2.08,0,2.718,1.21,2.718,2.828C100.373,32.91,98.811,33.307,97.556,33.307z"/>
				<path fill="#FF164A" d="M114.348,29.279c0-2.905-1.783-3.741-3.125-3.741c-1.342,0-6.096,0-6.096,0v9.837h2.223v-2.663h2.949     l1.21,2.663h2.575l-1.298-2.971C112.786,32.404,114.348,31.568,114.348,29.279z M112.081,29.296c0,0.653-0.53,1.183-1.183,1.183     h-3.549v-2.828h3.549c0.653,0,1.183,0.53,1.183,1.183V29.296z"/>
				<polygon fill="#FF164A" points="125,27.662 125,25.648 116.571,25.648 116.571,35.375 125,35.375 125,33.329 118.849,33.329      118.849,31.436 125,31.436 125,29.455 118.849,29.455 118.849,27.662    "/>
			</g>
		</g>
		<rect x="0" y="0" fill="none" width="125" height="40"/>
	</g>
</svg>